<?xml version="1.0" encoding="UTF-8" standalone="no"?>
<svg
   xmlns:dc="http://purl.org/dc/elements/1.1/"
   xmlns:cc="http://creativecommons.org/ns#"
   xmlns:rdf="http://www.w3.org/1999/02/22-rdf-syntax-ns#"
   xmlns:svg="http://www.w3.org/2000/svg"
   xmlns="http://www.w3.org/2000/svg"
   xmlns:sodipodi="http://sodipodi.sourceforge.net/DTD/sodipodi-0.dtd"
   xmlns:inkscape="http://www.inkscape.org/namespaces/inkscape"
   width="16"
   height="16"
   fill="currentColor"
   class="bi bi-x"
   viewBox="0 0 16 16"
   version="1.1"
   id="svg12"
   sodipodi:docname="x.svg"
   inkscape:version="0.92.5 (2060ec1f9f, 2020-04-08)">
  <metadata
     id="metadata18">
    <rdf:RDF>
      <cc:Work
         rdf:about="">
        <dc:format>image/svg+xml</dc:format>
        <dc:type
           rdf:resource="http://purl.org/dc/dcmitype/StillImage" />
      </cc:Work>
    </rdf:RDF>
  </metadata>
  <defs
     id="defs16" />
  <sodipodi:namedview
     pagecolor="#ffffff"
     bordercolor="#666666"
     borderopacity="1"
     objecttolerance="10"
     gridtolerance="10"
     guidetolerance="10"
     inkscape:pageopacity="0"
     inkscape:pageshadow="2"
     inkscape:window-width="1333"
     inkscape:window-height="732"
     id="namedview14"
     showgrid="false"
     inkscape:zoom="22.627417"
     inkscape:cx="7.3514765"
     inkscape:cy="11.06146"
     inkscape:window-x="33"
     inkscape:window-y="0"
     inkscape:window-maximized="1"
     inkscape:current-layer="svg12" />
  <rect
     style="opacity:1;fill:#010000;fill-opacity:1;stroke:#000000;stroke-width:1.4545455"
     id="rect4892"
     width="14.545455"
     height="14.545455"
     x="0.72727275"
     y="0.72727251"
     ry="0" />
  <path
     d="m 3.2098067,3.209959 a 0.71414431,0.71414431 0 0 1 1.0112284,0 l 3.7792519,3.78068 3.779252,-3.78068 a 0.71504647,0.71504647 0 0 1 1.011228,1.0112284 l -3.78068,3.7792517 3.78068,3.7792519 a 0.71504647,0.71504647 0 0 1 -1.011228,1.011228 L 8.000287,9.0102384 4.2210351,12.790919 A 0.71504649,0.71504649 0 0 1 3.2098067,11.779691 l 3.78068,-3.7792519 -3.78068,-3.7792517 a 0.71414431,0.71414431 0 0 1 0,-1.0112284 z"
     id="path10"
     style="fill:#c3ffff;fill-opacity:0.94117647;stroke-width:1.42828858"
     inkscape:connector-curvature="0" />
</svg>
